# xmcd
#
# Track frame offsets:
#	150
#	47687
#	78670
#	118055
#	132532
#	160012
#	183372
#	231550
#
# Disc length: 3498 seconds
#
# Revision: 0
# Processed by: cddbd v1.4PL0 Copyright (c) Steve Scherf et al.
# Submitted via: MusicWizard 6.0.1
#
DISCID=6c0da808
DTITLE=Various Artist - Romantic Classics - CD 1
DYEAR=1900
DGENRE=Klassik
TTITLE0=Felix Mendelssohn Bartholdy - Sinfonie für Streicher Nr. 10 h-Moll
TTITLE1=Adolphe Adam - Finale aus "Giselle"
TTITLE2=Engelbert Humperdinick - Pantomime aus "Hänsel und Gretel"
TTITLE3=Gabriel Fauré - Après un rêve
TTITLE4=Ludwig van Beethoven (1770-1827) - Adagio aus der "Mondschein Sonate" - Ludwig van Beethov
TTITLE4=en
TTITLE5=Peter Tschaikowsky - Walzer aus "Dornröschen"
TTITLE6=Claude Debussy - Prélude à L´Après-midi d´un faune
TTITLE7=Leo Delibes - Prélude und Mazurka aus "Coppelia"
EXTD=ID3G: 32
EXTT0=Pathétique (Sonate c-moll op 13)
EXTT1=Pathétique (Sonate c-moll op 13)
EXTT2=Appassionata (Sonate f-moll op. 57)
EXTT3=Appassionata (Sonate f-moll op. 57)
EXTT4=Appassionata (Sonate f-moll op. 57)
EXTT5=Orquestra Sinf nica Da R dio De Praga
EXTT6=Orquestra Sinf nica Da R dio De Praga
EXTT7=Orquestra Amigos De Mozart
PLAYORDER=
